<svg width="837" height="154" viewBox="0 0 837 154" fill="none" xmlns="http://www.w3.org/2000/svg">
<g filter="url(#filter0_ddddd_7_14)">
<path d="M24.0966 62H6.1875V15.4545H23.9148C28.7027 15.4545 32.839 16.3864 36.3239 18.25C39.8239 20.0985 42.5208 22.7651 44.4148 26.25C46.3239 29.7197 47.2784 33.8788 47.2784 38.7273C47.2784 43.5758 46.3314 47.7424 44.4375 51.2273C42.5436 54.697 39.8617 57.3636 36.392 59.2273C32.9223 61.0758 28.8239 62 24.0966 62ZM18.8239 51.2727H23.642C25.9451 51.2727 27.9072 50.9015 29.5284 50.1591C31.1648 49.4167 32.4072 48.1364 33.2557 46.3182C34.1193 44.5 34.5511 41.9697 34.5511 38.7273C34.5511 35.4848 34.1117 32.9545 33.233 31.1364C32.3693 29.3182 31.0966 28.0379 29.4148 27.2955C27.7481 26.553 25.7027 26.1818 23.2784 26.1818H18.8239V51.2727ZM53.125 62V15.4545H86.6705V25.6364H65.7614V33.6364H84.9432V43.8182H65.7614V51.8182H86.5795V62H53.125ZM118.028 30C117.907 28.4848 117.339 27.303 116.324 26.4545C115.324 25.6061 113.801 25.1818 111.756 25.1818C110.453 25.1818 109.384 25.3409 108.551 25.6591C107.733 25.9621 107.127 26.3788 106.733 26.9091C106.339 27.4394 106.134 28.0455 106.119 28.7273C106.089 29.2879 106.188 29.7955 106.415 30.25C106.657 30.6894 107.036 31.0909 107.551 31.4545C108.066 31.803 108.725 32.1212 109.528 32.4091C110.331 32.697 111.286 32.9545 112.392 33.1818L116.21 34C118.786 34.5455 120.991 35.2652 122.824 36.1591C124.657 37.053 126.157 38.1061 127.324 39.3182C128.491 40.5152 129.347 41.8636 129.892 43.3636C130.453 44.8636 130.741 46.5 130.756 48.2727C130.741 51.3333 129.975 53.9242 128.46 56.0455C126.945 58.1667 124.778 59.7803 121.96 60.8864C119.157 61.9924 115.786 62.5455 111.847 62.5455C107.801 62.5455 104.271 61.947 101.256 60.75C98.2557 59.553 95.9223 57.7121 94.2557 55.2273C92.6042 52.7273 91.7708 49.5303 91.7557 45.6364H103.756C103.831 47.0606 104.188 48.2576 104.824 49.2273C105.46 50.197 106.354 50.9318 107.506 51.4318C108.672 51.9318 110.059 52.1818 111.665 52.1818C113.013 52.1818 114.142 52.0152 115.051 51.6818C115.96 51.3485 116.65 50.8864 117.119 50.2955C117.589 49.7045 117.831 49.0303 117.847 48.2727C117.831 47.5606 117.597 46.9394 117.142 46.4091C116.703 45.8636 115.975 45.3788 114.96 44.9545C113.945 44.5152 112.574 44.1061 110.847 43.7273L106.21 42.7273C102.089 41.8333 98.839 40.3409 96.4602 38.25C94.0966 36.1439 92.9223 33.2727 92.9375 29.6364C92.9223 26.6818 93.7102 24.0985 95.3011 21.8864C96.9072 19.6591 99.1269 17.9242 101.96 16.6818C104.809 15.4394 108.074 14.8182 111.756 14.8182C115.513 14.8182 118.763 15.447 121.506 16.7045C124.248 17.9621 126.362 19.7348 127.847 22.0227C129.347 24.2955 130.104 26.9545 130.119 30H118.028ZM148.199 15.4545V62H135.562V15.4545H148.199ZM184.415 30.8182C184.218 30.0152 183.907 29.3106 183.483 28.7045C183.059 28.0833 182.528 27.5606 181.892 27.1364C181.271 26.697 180.544 26.3712 179.71 26.1591C178.892 25.9318 177.991 25.8182 177.006 25.8182C174.884 25.8182 173.074 26.3258 171.574 27.3409C170.089 28.3561 168.953 29.8182 168.165 31.7273C167.392 33.6364 167.006 35.9394 167.006 38.6364C167.006 41.3636 167.377 43.697 168.119 45.6364C168.862 47.5758 169.968 49.0606 171.438 50.0909C172.907 51.1212 174.733 51.6364 176.915 51.6364C178.839 51.6364 180.438 51.3561 181.71 50.7955C182.998 50.2348 183.96 49.4394 184.597 48.4091C185.233 47.3788 185.551 46.1667 185.551 44.7727L187.733 45H177.097V36H197.733V42.4545C197.733 46.697 196.831 50.3258 195.028 53.3409C193.241 56.3409 190.771 58.6439 187.619 60.25C184.483 61.8409 180.884 62.6364 176.824 62.6364C172.294 62.6364 168.316 61.6742 164.892 59.75C161.468 57.8258 158.794 55.0833 156.869 51.5227C154.96 47.9621 154.006 43.7273 154.006 38.8182C154.006 34.9697 154.589 31.5606 155.756 28.5909C156.938 25.6212 158.574 23.1136 160.665 21.0682C162.756 19.0076 165.172 17.4545 167.915 16.4091C170.657 15.3485 173.597 14.8182 176.733 14.8182C179.491 14.8182 182.051 15.2121 184.415 16C186.794 16.7727 188.892 17.8788 190.71 19.3182C192.544 20.7424 194.021 22.4318 195.142 24.3864C196.263 26.3409 196.945 28.4848 197.188 30.8182H184.415ZM243.898 15.4545V62H233.352L216.534 37.5455H216.261V62H203.625V15.4545H214.352L230.898 39.8182H231.261V15.4545H243.898ZM274.716 62H261.08L276.443 15.4545H293.716L309.08 62H295.443L285.261 28.2727H284.898L274.716 62ZM272.17 43.6364H297.807V53.0909H272.17V43.6364ZM353.835 15.4545V62H343.29L326.472 37.5455H326.199V62H313.562V15.4545H324.29L340.835 39.8182H341.199V15.4545H353.835ZM377.722 62H359.812V15.4545H377.54C382.328 15.4545 386.464 16.3864 389.949 18.25C393.449 20.0985 396.146 22.7651 398.04 26.25C399.949 29.7197 400.903 33.8788 400.903 38.7273C400.903 43.5758 399.956 47.7424 398.062 51.2273C396.169 54.697 393.487 57.3636 390.017 59.2273C386.547 61.0758 382.449 62 377.722 62ZM372.449 51.2727H377.267C379.57 51.2727 381.532 50.9015 383.153 50.1591C384.79 49.4167 386.032 48.1364 386.881 46.3182C387.744 44.5 388.176 41.9697 388.176 38.7273C388.176 35.4848 387.737 32.9545 386.858 31.1364C385.994 29.3182 384.722 28.0379 383.04 27.2955C381.373 26.553 379.328 26.1818 376.903 26.1818H372.449V51.2727ZM419.5 15.4545H435.227L446.045 41.8182H446.591L457.409 15.4545H473.136V62H460.773V35.0909H460.409L450.045 61.6364H442.591L432.227 34.9091H431.864V62H419.5V15.4545ZM506.67 15.4545H519.307V45.2727C519.307 48.8182 518.458 51.8864 516.761 54.4773C515.08 57.053 512.731 59.0455 509.716 60.4545C506.701 61.8485 503.201 62.5455 499.216 62.5455C495.201 62.5455 491.686 61.8485 488.67 60.4545C485.655 59.0455 483.307 57.053 481.625 54.4773C479.958 51.8864 479.125 48.8182 479.125 45.2727V15.4545H491.761V44.1818C491.761 45.6212 492.08 46.9091 492.716 48.0455C493.352 49.1667 494.231 50.0455 495.352 50.6818C496.489 51.3182 497.777 51.6364 499.216 51.6364C500.67 51.6364 501.958 51.3182 503.08 50.6818C504.201 50.0455 505.08 49.1667 505.716 48.0455C506.352 46.9091 506.67 45.6212 506.67 44.1818V15.4545ZM525.312 62V15.4545H537.949V51.8182H556.767V62H525.312ZM555.04 25.6364V15.4545H595.494V25.6364H581.494V62H569.04V25.6364H555.04ZM612.886 15.4545V62H600.25V15.4545H612.886ZM618.875 15.4545H634.602L645.42 41.8182H645.966L656.784 15.4545H672.511V62H660.148V35.0909H659.784L649.42 61.6364H641.966L631.602 34.9091H631.239V62H618.875V15.4545ZM678.5 62V15.4545H712.045V25.6364H691.136V33.6364H710.318V43.8182H691.136V51.8182H711.955V62H678.5ZM736.222 62H718.312V15.4545H736.04C740.828 15.4545 744.964 16.3864 748.449 18.25C751.949 20.0985 754.646 22.7651 756.54 26.25C758.449 29.7197 759.403 33.8788 759.403 38.7273C759.403 43.5758 758.456 47.7424 756.562 51.2273C754.669 54.697 751.987 57.3636 748.517 59.2273C745.047 61.0758 740.949 62 736.222 62ZM730.949 51.2727H735.767C738.07 51.2727 740.032 50.9015 741.653 50.1591C743.29 49.4167 744.532 48.1364 745.381 46.3182C746.244 44.5 746.676 41.9697 746.676 38.7273C746.676 35.4848 746.237 32.9545 745.358 31.1364C744.494 29.3182 743.222 28.0379 741.54 27.2955C739.873 26.553 737.828 26.1818 735.403 26.1818H730.949V51.2727ZM777.886 15.4545V62H765.25V15.4545H777.886ZM795.966 62H782.33L797.693 15.4545H814.966L830.33 62H816.693L806.511 28.2727H806.148L795.966 62ZM793.42 43.6364H819.057V53.0909H793.42V43.6364Z" fill="url(#paint0_linear_7_14)"/>
<path d="M6.1875 62H5.1875V63H6.1875V62ZM6.1875 15.4545V14.4545H5.1875V15.4545H6.1875ZM36.3239 18.25L35.8523 19.1318L35.8569 19.1343L36.3239 18.25ZM44.4148 26.25L43.5361 26.7275L43.5386 26.7321L44.4148 26.25ZM44.4375 51.2273L45.3153 51.7064L45.3161 51.7048L44.4375 51.2273ZM36.392 59.2273L36.8622 60.1098L36.8652 60.1082L36.392 59.2273ZM18.8239 51.2727H17.8239V52.2727H18.8239V51.2727ZM29.5284 50.1591L29.1152 49.2484L29.112 49.2499L29.5284 50.1591ZM33.2557 46.3182L32.3524 45.8891L32.3495 45.8953L33.2557 46.3182ZM33.233 31.1364L32.3297 31.5654L32.3326 31.5715L33.233 31.1364ZM29.4148 27.2955L29.0079 28.2089L29.0109 28.2103L29.4148 27.2955ZM18.8239 26.1818V25.1818H17.8239V26.1818H18.8239ZM24.0966 61H6.1875V63H24.0966V61ZM7.1875 62V15.4545H5.1875V62H7.1875ZM6.1875 16.4545H23.9148V14.4545H6.1875V16.4545ZM23.9148 16.4545C28.5726 16.4545 32.5402 17.3606 35.8523 19.1318L36.7954 17.3682C33.1379 15.4122 28.8327 14.4545 23.9148 14.4545V16.4545ZM35.8569 19.1343C39.1822 20.8905 41.7361 23.4155 43.5362 26.7275L45.2934 25.7725C43.3055 22.1148 40.4655 19.3065 36.7909 17.3657L35.8569 19.1343ZM43.5386 26.7321C45.3502 30.0244 46.2784 34.0099 46.2784 38.7273H48.2784C48.2784 33.7477 47.2976 29.415 45.2909 25.7679L43.5386 26.7321ZM46.2784 38.7273C46.2784 43.4457 45.3573 47.4407 43.5589 50.7498L45.3161 51.7048C47.3056 48.0442 48.2784 43.7058 48.2784 38.7273H46.2784ZM43.5598 50.7482C41.7584 54.0481 39.2169 56.5749 35.9189 58.3463L36.8652 60.1082C40.5066 58.1524 43.3287 55.3458 45.3152 51.7064L43.5598 50.7482ZM35.9219 58.3447C32.6234 60.1019 28.6929 61 24.0966 61V63C28.9549 63 33.2212 62.0496 36.8622 60.1098L35.9219 58.3447ZM18.8239 52.2727H23.642V50.2727H18.8239V52.2727ZM23.642 52.2727C26.0485 52.2727 28.1607 51.8853 29.9448 51.0683L29.112 49.2499C27.6537 49.9177 25.8416 50.2727 23.642 50.2727V52.2727ZM29.9416 51.0697C31.8208 50.2171 33.2251 48.7485 34.1619 46.7411L32.3495 45.8953C31.5893 47.5242 30.5087 48.6162 29.1152 49.2484L29.9416 51.0697ZM34.159 46.7472C35.1136 44.7376 35.5511 42.0377 35.5511 38.7273H33.5511C33.5511 41.9017 33.1251 44.2624 32.3524 45.8891L34.159 46.7472ZM35.5511 38.7273C35.5511 35.4153 35.1056 32.7129 34.1333 30.7012L32.3326 31.5715C33.1178 33.1962 33.5511 35.5544 33.5511 38.7273H35.5511ZM34.1362 30.7073C33.1802 28.6947 31.7412 27.2293 29.8186 26.3806L29.0109 28.2103C30.452 28.8464 31.5584 29.9417 32.3297 31.5654L34.1362 30.7073ZM29.8217 26.382C27.9922 25.567 25.7991 25.1818 23.2784 25.1818V27.1818C25.6062 27.1818 27.504 27.539 29.0079 28.2089L29.8217 26.382ZM23.2784 25.1818H18.8239V27.1818H23.2784V25.1818ZM17.8239 26.1818V51.2727H19.8239V26.1818H17.8239ZM53.125 62H52.125V63H53.125V62ZM53.125 15.4545V14.4545H52.125V15.4545H53.125ZM86.6705 15.4545H87.6705V14.4545H86.6705V15.4545ZM86.6705 25.6364V26.6364H87.6705V25.6364H86.6705ZM65.7614 25.6364V24.6364H64.7614V25.6364H65.7614ZM65.7614 33.6364H64.7614V34.6364H65.7614V33.6364ZM84.9432 33.6364H85.9432V32.6364H84.9432V33.6364ZM84.9432 43.8182V44.8182H85.9432V43.8182H84.9432ZM65.7614 43.8182V42.8182H64.7614V43.8182H65.7614ZM65.7614 51.8182H64.7614V52.8182H65.7614V51.8182ZM86.5795 51.8182H87.5795V50.8182H86.5795V51.8182ZM86.5795 62V63H87.5795V62H86.5795ZM54.125 62V15.4545H52.125V62H54.125ZM53.125 16.4545H86.6705V14.4545H53.125V16.4545ZM85.6705 15.4545V25.6364H87.6705V15.4545H85.6705ZM86.6705 24.6364H65.7614V26.6364H86.6705V24.6364ZM64.7614 25.6364V33.6364H66.7614V25.6364H64.7614ZM65.7614 34.6364H84.9432V32.6364H65.7614V34.6364ZM83.9432 33.6364V43.8182H85.9432V33.6364H83.9432ZM84.9432 42.8182H65.7614V44.8182H84.9432V42.8182ZM64.7614 43.8182V51.8182H66.7614V43.8182H64.7614ZM65.7614 52.8182H86.5795V50.8182H65.7614V52.8182ZM85.5795 51.8182V62H87.5795V51.8182H85.5795ZM86.5795 61H53.125V63H86.5795V61ZM118.028 30L117.032 30.0797L117.105 31H118.028V30ZM116.324 26.4545L115.677 27.2171L115.683 27.2218L116.324 26.4545ZM108.551 25.6591L108.898 26.5969L108.908 26.5933L108.551 25.6591ZM106.733 26.9091L105.93 26.3128L105.93 26.3128L106.733 26.9091ZM106.119 28.7273L107.118 28.7812L107.119 28.7654L107.119 28.7495L106.119 28.7273ZM106.415 30.25L105.52 30.6972L105.529 30.7153L105.539 30.7331L106.415 30.25ZM107.551 31.4545L106.974 32.2715L106.983 32.2773L106.991 32.2828L107.551 31.4545ZM112.392 33.1818L112.602 32.204L112.593 32.2023L112.392 33.1818ZM116.21 34L116.001 34.9778L116.003 34.9783L116.21 34ZM122.824 36.1591L122.386 37.0579L122.824 36.1591ZM127.324 39.3182L126.603 40.0117L126.608 40.0162L127.324 39.3182ZM129.892 43.3636L128.952 43.7054L128.955 43.7137L129.892 43.3636ZM130.756 48.2727L131.756 48.2777L131.756 48.2642L130.756 48.2727ZM128.46 56.0455L129.274 56.6267L129.274 56.6267L128.46 56.0455ZM121.96 60.8864L121.595 59.9555L121.593 59.9562L121.96 60.8864ZM101.256 60.75L100.885 61.6788L100.887 61.6794L101.256 60.75ZM94.2557 55.2273L93.4213 55.7785L93.4252 55.7843L94.2557 55.2273ZM91.7557 45.6364V44.6364H90.7518L90.7557 45.6403L91.7557 45.6364ZM103.756 45.6364L104.754 45.5832L104.704 44.6364H103.756V45.6364ZM104.824 49.2273L103.988 49.7759L103.988 49.7759L104.824 49.2273ZM107.506 51.4318L107.107 52.3491L107.112 52.351L107.506 51.4318ZM115.051 51.6818L115.395 52.6207L115.395 52.6207L115.051 51.6818ZM117.119 50.2955L117.902 50.9177L117.902 50.9177L117.119 50.2955ZM117.847 48.2727L118.846 48.2927L118.847 48.2721L118.846 48.2515L117.847 48.2727ZM117.142 46.4091L116.363 47.0364L116.373 47.0483L116.383 47.0599L117.142 46.4091ZM114.96 44.9545L114.563 45.8723L114.575 45.8772L114.96 44.9545ZM110.847 43.7273L111.061 42.7505L111.057 42.7498L110.847 43.7273ZM106.21 42.7273L105.998 43.7045L105.999 43.7048L106.21 42.7273ZM96.4602 38.25L95.795 38.9966L95.8 39.0011L96.4602 38.25ZM92.9375 29.6364L93.9375 29.6405L93.9375 29.6312L92.9375 29.6364ZM95.3011 21.8864L94.49 21.3015L94.4893 21.3025L95.3011 21.8864ZM101.96 16.6818L101.56 15.7652L101.559 15.766L101.96 16.6818ZM121.506 16.7045L121.089 17.6135L121.089 17.6135L121.506 16.7045ZM127.847 22.0227L127.008 22.5671L127.012 22.5736L127.847 22.0227ZM130.119 30V31H131.124L131.119 29.995L130.119 30ZM119.025 29.9203C118.886 28.1808 118.217 26.7339 116.965 25.6873L115.683 27.2218C116.461 27.8721 116.928 28.7889 117.032 30.0797L119.025 29.9203ZM116.971 25.692C115.713 24.6247 113.912 24.1818 111.756 24.1818V26.1818C113.69 26.1818 114.935 26.5874 115.677 27.2171L116.971 25.692ZM111.756 24.1818C110.382 24.1818 109.181 24.3481 108.194 24.7249L108.908 26.5933C109.588 26.3337 110.523 26.1818 111.756 26.1818V24.1818ZM108.204 24.7213C107.261 25.0705 106.471 25.5843 105.93 26.3128L107.536 27.5054C107.782 27.1732 108.205 26.8538 108.898 26.5968L108.204 24.7213ZM105.93 26.3128C105.409 27.0151 105.139 27.8232 105.12 28.7051L107.119 28.7495C107.13 28.2677 107.27 27.8637 107.536 27.5054L105.93 26.3128ZM105.121 28.6733C105.082 29.3886 105.208 30.0716 105.52 30.6972L107.309 29.8028C107.167 29.5193 107.096 29.1872 107.118 28.7812L105.121 28.6733ZM105.539 30.7331C105.871 31.3345 106.367 31.8424 106.974 32.2715L108.128 30.6376C107.705 30.3394 107.443 30.0443 107.29 29.7669L105.539 30.7331ZM106.991 32.2828C107.595 32.6919 108.336 33.044 109.191 33.3504L109.866 31.4678C109.115 31.1984 108.537 30.9142 108.111 30.6263L106.991 32.2828ZM109.191 33.3504C110.05 33.6584 111.052 33.9274 112.191 34.1614L112.593 32.2023C111.52 31.9817 110.613 31.7356 109.866 31.4678L109.191 33.3504ZM112.183 34.1596L116.001 34.9778L116.42 33.0222L112.602 32.204L112.183 34.1596ZM116.003 34.9783C118.521 35.5114 120.643 36.2084 122.386 37.0579L123.262 35.2603C121.338 34.3219 119.051 33.5795 116.417 33.0217L116.003 34.9783ZM122.386 37.0579C124.135 37.9111 125.533 38.8998 126.603 40.0117L128.044 38.6247C126.781 37.3123 125.179 36.195 123.262 35.2603L122.386 37.0579ZM126.608 40.0162C127.68 41.1165 128.458 42.3449 128.952 43.7054L130.832 43.0219C130.236 41.3823 129.301 39.9138 128.04 38.6202L126.608 40.0162ZM128.955 43.7137C129.471 45.0934 129.741 46.6128 129.756 48.2813L131.756 48.2642C131.74 46.3872 131.434 44.6339 130.829 43.0136L128.955 43.7137ZM129.756 48.2678C129.741 51.1587 129.022 53.539 127.646 55.4642L129.274 56.6267C130.929 54.3095 131.74 51.508 131.756 48.2777L129.756 48.2678ZM127.646 55.4642C126.261 57.4038 124.263 58.9085 121.595 59.9555L122.326 61.8172C125.294 60.6521 127.629 58.9295 129.274 56.6267L127.646 55.4642ZM121.593 59.9562C118.937 61.0043 115.697 61.5455 111.847 61.5455V63.5455C115.875 63.5455 119.378 62.9805 122.327 61.8166L121.593 59.9562ZM111.847 61.5455C107.897 61.5455 104.497 60.961 101.625 59.8206L100.887 61.6794C104.044 62.933 107.705 63.5455 111.847 63.5455V61.5455ZM101.626 59.8212C98.7979 58.6927 96.6315 56.9742 95.0862 54.6702L93.4252 55.7843C95.2132 58.4501 97.7135 60.4133 100.885 61.6788L101.626 59.8212ZM95.0901 54.6761C93.5737 52.3807 92.7703 49.3893 92.7557 45.6325L90.7557 45.6403C90.7714 49.6713 91.6346 53.0739 93.4213 55.7785L95.0901 54.6761ZM91.7557 46.6364H103.756V44.6364H91.7557V46.6364ZM102.757 45.6895C102.84 47.25 103.234 48.6279 103.988 49.7759L105.66 48.6786C105.141 47.8873 104.823 46.8712 104.754 45.5832L102.757 45.6895ZM103.988 49.7759C104.74 50.922 105.793 51.7782 107.107 52.3491L107.904 50.5146C106.916 50.0855 106.181 49.472 105.66 48.6786L103.988 49.7759ZM107.112 52.351C108.431 52.9164 109.958 53.1818 111.665 53.1818V51.1818C110.16 51.1818 108.913 50.9472 107.9 50.5127L107.112 52.351ZM111.665 53.1818C113.088 53.1818 114.342 53.0069 115.395 52.6207L114.707 50.7429C113.942 51.0234 112.938 51.1818 111.665 51.1818V53.1818ZM115.395 52.6207C116.429 52.2417 117.29 51.6878 117.902 50.9177L116.336 49.6732C116.009 50.0849 115.491 50.4553 114.707 50.7429L115.395 52.6207ZM117.902 50.9177C118.509 50.1545 118.827 49.2685 118.846 48.2927L116.847 48.2527C116.836 48.7921 116.669 49.2546 116.336 49.6732L117.902 50.9177ZM118.846 48.2515C118.826 47.313 118.51 46.468 117.901 45.7583L116.383 47.0599C116.684 47.4107 116.836 47.8082 116.847 48.294L118.846 48.2515ZM117.921 45.7818C117.334 45.0531 116.435 44.4872 115.346 44.0319L114.575 45.8772C115.515 46.2704 116.071 46.6742 116.363 47.0364L117.921 45.7818ZM115.357 44.0368C114.259 43.5614 112.818 43.1359 111.061 42.7505L110.632 44.7041C112.329 45.0762 113.631 45.4689 114.563 45.8723L115.357 44.0368ZM111.057 42.7498L106.421 41.7498L105.999 43.7048L110.636 44.7048L111.057 42.7498ZM106.422 41.75C102.414 40.8806 99.3361 39.4464 97.1204 37.4989L95.8 39.0011C98.342 41.2354 101.764 42.7861 105.998 43.7045L106.422 41.75ZM97.1255 37.5034C95.0087 35.6173 93.9233 33.0374 93.9375 29.6405L91.9375 29.6322C91.9214 33.5081 93.1844 36.6706 95.795 38.9966L97.1255 37.5034ZM93.9375 29.6312C93.9233 26.8692 94.656 24.4962 96.113 22.4702L94.4893 21.3025C92.7645 23.7008 91.9214 26.4945 91.9375 29.6415L93.9375 29.6312ZM96.1123 22.4712C97.6011 20.4066 99.6709 18.7776 102.362 17.5976L101.559 15.766C98.5829 17.0709 96.2133 18.9116 94.49 21.3015L96.1123 22.4712ZM102.36 17.5984C105.061 16.4202 108.186 15.8182 111.756 15.8182V13.8182C107.961 13.8182 104.556 14.4586 101.56 15.7652L102.36 17.5984ZM111.756 15.8182C115.404 15.8182 118.505 16.4288 121.089 17.6135L121.923 15.7956C119.021 14.4652 115.623 13.8182 111.756 13.8182V15.8182ZM121.089 17.6135C123.678 18.8007 125.637 20.4549 127.008 22.5671L128.685 21.4783C127.087 19.0147 124.818 17.1235 121.923 15.7956L121.089 17.6135ZM127.012 22.5736C128.393 24.6655 129.105 27.1299 129.119 30.005L131.119 29.995C131.103 26.7792 130.301 23.9254 128.681 21.4719L127.012 22.5736ZM130.119 29H118.028V31H130.119V29ZM148.199 15.4545H149.199V14.4545H148.199V15.4545ZM148.199 62V63H149.199V62H148.199ZM135.562 62H134.562V63H135.562V62ZM135.562 15.4545V14.4545H134.562V15.4545H135.562ZM147.199 15.4545V62H149.199V15.4545H147.199ZM148.199 61H135.562V63H148.199V61ZM136.562 62V15.4545H134.562V62H136.562ZM135.562 16.4545H148.199V14.4545H135.562V16.4545ZM184.415 30.8182L183.444 31.0564L183.63 31.8182H184.415V30.8182ZM183.483 28.7045L182.657 29.2685L182.664 29.278L183.483 28.7045ZM181.892 27.1364L181.315 27.9528L181.326 27.9608L181.337 27.9684L181.892 27.1364ZM179.71 26.1591L179.443 27.1226L179.453 27.1255L179.464 27.1282L179.71 26.1591ZM171.574 27.3409L171.013 26.5127L171.009 26.5154L171.574 27.3409ZM168.165 31.7273L167.24 31.3458L167.238 31.3521L168.165 31.7273ZM168.119 45.6364L167.185 45.9939L167.185 45.9939L168.119 45.6364ZM171.438 50.0909L170.863 50.9097L170.863 50.9097L171.438 50.0909ZM181.71 50.7955L181.311 49.8785L181.307 49.8803L181.71 50.7955ZM184.597 48.4091L183.746 47.8836L183.746 47.8836L184.597 48.4091ZM185.551 44.7727L185.655 43.7781L184.551 43.6631V44.7727H185.551ZM187.733 45V46L187.837 44.0054L187.733 45ZM177.097 45H176.097V46H177.097V45ZM177.097 36V35H176.097V36H177.097ZM197.733 36H198.733V35H197.733V36ZM195.028 53.3409L194.17 52.8277L194.169 52.829L195.028 53.3409ZM187.619 60.25L188.072 61.1418L188.073 61.141L187.619 60.25ZM164.892 59.75L164.402 60.6218L164.402 60.6218L164.892 59.75ZM156.869 51.5227L155.988 51.9953L155.99 51.9982L156.869 51.5227ZM155.756 28.5909L154.827 28.2211L154.825 28.2253L155.756 28.5909ZM160.665 21.0682L161.364 21.783L161.367 21.7804L160.665 21.0682ZM167.915 16.4091L168.271 17.3435L168.275 17.3418L167.915 16.4091ZM184.415 16L184.099 16.9487L184.106 16.9511L184.415 16ZM190.71 19.3182L190.089 20.1023L190.097 20.1079L190.71 19.3182ZM195.142 24.3864L196.009 23.8888L196.009 23.8888L195.142 24.3864ZM197.188 30.8182V31.8182H198.297L198.182 30.7148L197.188 30.8182ZM185.386 30.58C185.163 29.6708 184.805 28.8498 184.302 28.1311L182.664 29.278C183.009 29.7714 183.273 30.3595 183.444 31.0564L185.386 30.58ZM184.309 28.1406C183.811 27.4117 183.188 26.7985 182.447 26.3043L181.337 27.9684C181.869 28.3227 182.306 28.755 182.657 29.2685L184.309 28.1406ZM182.47 26.3199C181.736 25.8012 180.894 25.4284 179.957 25.19L179.464 27.1282C180.194 27.314 180.805 27.5927 181.315 27.9528L182.47 26.3199ZM179.978 25.1956C179.06 24.9406 178.067 24.8182 177.006 24.8182V26.8182C177.914 26.8182 178.724 26.923 179.443 27.1226L179.978 25.1956ZM177.006 24.8182C174.72 24.8182 172.706 25.3675 171.013 26.5127L172.134 28.1691C173.442 27.284 175.049 26.8182 177.006 26.8182V24.8182ZM171.009 26.5154C169.341 27.656 168.091 29.2842 167.24 31.3458L169.089 32.1088C169.814 30.3522 170.837 29.0561 172.138 28.1664L171.009 26.5154ZM167.238 31.3521C166.404 33.411 166.006 35.8486 166.006 38.6364H168.006C168.006 36.0302 168.38 33.8617 169.092 32.1025L167.238 31.3521ZM166.006 38.6364C166.006 41.4496 166.388 43.9108 167.185 45.9939L169.053 45.2789C168.366 43.4831 168.006 41.2777 168.006 38.6364H166.006ZM167.185 45.9939C167.988 48.0894 169.206 49.7478 170.863 50.9097L172.012 49.2721C170.73 48.3734 169.736 47.0621 169.053 45.2789L167.185 45.9939ZM170.863 50.9097C172.535 52.0814 174.573 52.6364 176.915 52.6364V50.6364C174.893 50.6364 173.28 50.161 172.012 49.2721L170.863 50.9097ZM176.915 52.6364C178.928 52.6364 180.675 52.3443 182.113 51.7106L181.307 49.8803C180.2 50.3679 178.75 50.6364 176.915 50.6364V52.6364ZM182.109 51.7124C183.553 51.0838 184.688 50.1649 185.447 48.9346L183.746 47.8836C183.233 48.7139 182.443 49.3859 181.311 49.8786L182.109 51.7124ZM185.447 48.9346C186.195 47.7237 186.551 46.3237 186.551 44.7727H184.551C184.551 46.0097 184.271 47.0339 183.746 47.8836L185.447 48.9346ZM185.448 45.7673L187.629 45.9946L187.837 44.0054L185.655 43.7781L185.448 45.7673ZM187.733 44H177.097V46H187.733V44ZM178.097 45V36H176.097V45H178.097ZM177.097 37H197.733V35H177.097V37ZM196.733 36V42.4545H198.733V36H196.733ZM196.733 42.4545C196.733 46.5538 195.863 49.997 194.17 52.8277L195.887 53.8541C197.8 50.6545 198.733 46.8401 198.733 42.4545H196.733ZM194.169 52.829C192.479 55.6648 190.151 57.8374 187.165 59.359L188.073 61.141C191.391 59.4504 194.002 57.017 195.887 53.8529L194.169 52.829ZM187.167 59.3582C184.191 60.8677 180.752 61.6364 176.824 61.6364V63.6364C181.017 63.6364 184.775 62.8141 188.072 61.1418L187.167 59.3582ZM176.824 61.6364C172.439 61.6364 168.635 60.7063 165.382 58.8782L164.402 60.6218C167.998 62.6422 172.149 63.6364 176.824 63.6364V61.6364ZM165.382 58.8782C162.128 57.0495 159.586 54.4469 157.749 51.0473L155.99 51.9982C158.001 55.7197 160.808 58.602 164.402 60.6218L165.382 58.8782ZM157.751 51.0502C155.935 47.663 155.006 43.5975 155.006 38.8182H153.006C153.006 43.857 153.986 48.2612 155.988 51.9953L157.751 51.0502ZM155.006 38.8182C155.006 35.0697 155.574 31.7885 156.686 28.9566L154.825 28.2253C153.604 31.3327 153.006 34.8697 153.006 38.8182H155.006ZM156.685 28.9607C157.82 26.1086 159.382 23.722 161.364 21.783L159.965 20.3533C157.766 22.5053 156.055 25.1338 154.827 28.2212L156.685 28.9607ZM161.367 21.7804C163.359 19.817 165.658 18.3396 168.271 17.3435L167.559 15.4747C164.687 16.5695 162.152 18.1982 159.963 20.3559L161.367 21.7804ZM168.275 17.3418C170.895 16.3286 173.712 15.8182 176.733 15.8182V13.8182C173.482 13.8182 170.419 14.3684 167.554 15.4764L168.275 17.3418ZM176.733 15.8182C179.394 15.8182 181.847 16.1982 184.099 16.9487L184.731 15.0513C182.255 14.226 179.587 13.8182 176.733 13.8182V15.8182ZM184.106 16.9511C186.381 17.69 188.372 18.7422 190.09 20.1022L191.331 18.5341C189.413 17.0154 187.207 15.8555 184.724 15.0489L184.106 16.9511ZM190.097 20.1079C191.83 21.4547 193.22 23.0458 194.275 24.884L196.009 23.8888C194.821 21.8178 193.257 20.0302 191.324 18.5285L190.097 20.1079ZM194.275 24.884C195.324 26.7124 195.964 28.7212 196.193 30.9215L198.182 30.7148C197.926 28.2485 197.203 25.9694 196.009 23.8888L194.275 24.884ZM197.188 29.8182H184.415V31.8182H197.188V29.8182ZM243.898 15.4545H244.898V14.4545H243.898V15.4545ZM243.898 62V63H244.898V62H243.898ZM233.352 62L232.528 62.5667L232.826 63H233.352V62ZM216.534 37.5455L217.358 36.9788L217.06 36.5455H216.534V37.5455ZM216.261 37.5455V36.5455H215.261V37.5455H216.261ZM216.261 62V63H217.261V62H216.261ZM203.625 62H202.625V63H203.625V62ZM203.625 15.4545V14.4545H202.625V15.4545H203.625ZM214.352 15.4545L215.18 14.8927L214.882 14.4545H214.352V15.4545ZM230.898 39.8182L230.07 40.38L230.368 40.8182H230.898V39.8182ZM231.261 39.8182V40.8182H232.261V39.8182H231.261ZM231.261 15.4545V14.4545H230.261V15.4545H231.261ZM242.898 15.4545V62H244.898V15.4545H242.898ZM243.898 61H233.352V63H243.898V61ZM234.176 61.4333L217.358 36.9788L215.71 38.1121L232.528 62.5667L234.176 61.4333ZM216.534 36.5455H216.261V38.5455H216.534V36.5455ZM215.261 37.5455V62H217.261V37.5455H215.261ZM216.261 61H203.625V63H216.261V61ZM204.625 62V15.4545H202.625V62H204.625ZM203.625 16.4545H214.352V14.4545H203.625V16.4545ZM213.525 16.0163L230.07 40.38L231.725 39.2564L215.18 14.8927L213.525 16.0163ZM230.898 40.8182H231.261V38.8182H230.898V40.8182ZM232.261 39.8182V15.4545H230.261V39.8182H232.261ZM231.261 16.4545H243.898V14.4545H231.261V16.4545ZM274.716 62V63H275.459L275.673 62.289L274.716 62ZM261.08 62L260.13 61.6866L259.696 63H261.08V62ZM276.443 15.4545V14.4545H275.72L275.494 15.1411L276.443 15.4545ZM293.716 15.4545L294.666 15.1411L294.439 14.4545H293.716V15.4545ZM309.08 62V63H310.463L310.029 61.6866L309.08 62ZM295.443 62L294.486 62.289L294.7 63H295.443V62ZM285.261 28.2727L286.219 27.9837L286.004 27.2727H285.261V28.2727ZM284.898 28.2727V27.2727H284.155L283.94 27.9837L284.898 28.2727ZM272.17 43.6364V42.6364H271.17V43.6364H272.17ZM297.807 43.6364H298.807V42.6364H297.807V43.6364ZM297.807 53.0909V54.0909H298.807V53.0909H297.807ZM272.17 53.0909H271.17V54.0909H272.17V53.0909ZM274.716 61H261.08V63H274.716V61ZM262.029 62.3134L277.393 15.768L275.494 15.1411L260.13 61.6866L262.029 62.3134ZM276.443 16.4545H293.716V14.4545H276.443V16.4545ZM292.766 15.768L308.13 62.3134L310.029 61.6866L294.666 15.1411L292.766 15.768ZM309.08 61H295.443V63H309.08V61ZM296.401 61.711L286.219 27.9837L284.304 28.5617L294.486 62.289L296.401 61.711ZM285.261 27.2727H284.898V29.2727H285.261V27.2727ZM283.94 27.9837L273.759 61.711L275.673 62.289L285.855 28.5617L283.94 27.9837ZM272.17 44.6364H297.807V42.6364H272.17V44.6364ZM296.807 43.6364V53.0909H298.807V43.6364H296.807ZM297.807 52.0909H272.17V54.0909H297.807V52.0909ZM273.17 53.0909V43.6364H271.17V53.0909H273.17ZM353.835 15.4545H354.835V14.4545H353.835V15.4545ZM353.835 62V63H354.835V62H353.835ZM343.29 62L342.466 62.5667L342.764 63H343.29V62ZM326.472 37.5455L327.296 36.9788L326.998 36.5455H326.472V37.5455ZM326.199 37.5455V36.5455H325.199V37.5455H326.199ZM326.199 62V63H327.199V62H326.199ZM313.562 62H312.562V63H313.562V62ZM313.562 15.4545V14.4545H312.562V15.4545H313.562ZM324.29 15.4545L325.117 14.8927L324.819 14.4545H324.29V15.4545ZM340.835 39.8182L340.008 40.38L340.306 40.8182H340.835V39.8182ZM341.199 39.8182V40.8182H342.199V39.8182H341.199ZM341.199 15.4545V14.4545H340.199V15.4545H341.199ZM352.835 15.4545V62H354.835V15.4545H352.835ZM353.835 61H343.29V63H353.835V61ZM344.114 61.4333L327.296 36.9788L325.648 38.1121L342.466 62.5667L344.114 61.4333ZM326.472 36.5455H326.199V38.5455H326.472V36.5455ZM325.199 37.5455V62H327.199V37.5455H325.199ZM326.199 61H313.562V63H326.199V61ZM314.562 62V15.4545H312.562V62H314.562ZM313.562 16.4545H324.29V14.4545H313.562V16.4545ZM323.463 16.0163L340.008 40.38L341.662 39.2564L325.117 14.8927L323.463 16.0163ZM340.835 40.8182H341.199V38.8182H340.835V40.8182ZM342.199 39.8182V15.4545H340.199V39.8182H342.199ZM341.199 16.4545H353.835V14.4545H341.199V16.4545ZM359.812 62H358.812V63H359.812V62ZM359.812 15.4545V14.4545H358.812V15.4545H359.812ZM389.949 18.25L389.477 19.1318L389.482 19.1343L389.949 18.25ZM398.04 26.25L397.161 26.7275L397.164 26.7321L398.04 26.25ZM398.062 51.2273L398.94 51.7064L398.941 51.7048L398.062 51.2273ZM390.017 59.2273L390.487 60.1098L390.49 60.1082L390.017 59.2273ZM372.449 51.2727H371.449V52.2727H372.449V51.2727ZM383.153 50.1591L382.74 49.2484L382.737 49.2499L383.153 50.1591ZM386.881 46.3182L385.977 45.8891L385.974 45.8953L386.881 46.3182ZM386.858 31.1364L385.955 31.5654L385.958 31.5715L386.858 31.1364ZM383.04 27.2955L382.633 28.2089L382.636 28.2103L383.04 27.2955ZM372.449 26.1818V25.1818H371.449V26.1818H372.449ZM377.722 61H359.812V63H377.722V61ZM360.812 62V15.4545H358.812V62H360.812ZM359.812 16.4545H377.54V14.4545H359.812V16.4545ZM377.54 16.4545C382.198 16.4545 386.165 17.3606 389.477 19.1318L390.42 17.3682C386.763 15.4122 382.458 14.4545 377.54 14.4545V16.4545ZM389.482 19.1343C392.807 20.8905 395.361 23.4155 397.161 26.7275L398.918 25.7725C396.931 22.1148 394.091 19.3065 390.416 17.3657L389.482 19.1343ZM397.164 26.7321C398.975 30.0244 399.903 34.0099 399.903 38.7273H401.903C401.903 33.7477 400.923 29.415 398.916 25.7679L397.164 26.7321ZM399.903 38.7273C399.903 43.4457 398.982 47.4407 397.184 50.7498L398.941 51.7048C400.931 48.0442 401.903 43.7058 401.903 38.7273H399.903ZM397.185 50.7482C395.383 54.0481 392.842 56.5749 389.544 58.3463L390.49 60.1082C394.132 58.1524 396.954 55.3458 398.94 51.7064L397.185 50.7482ZM389.547 58.3447C386.248 60.1019 382.318 61 377.722 61V63C382.58 63 386.846 62.0496 390.487 60.1098L389.547 58.3447ZM372.449 52.2727H377.267V50.2727H372.449V52.2727ZM377.267 52.2727C379.674 52.2727 381.786 51.8853 383.57 51.0683L382.737 49.2499C381.279 49.9177 379.467 50.2727 377.267 50.2727V52.2727ZM383.567 51.0697C385.446 50.2171 386.85 48.7485 387.787 46.7411L385.974 45.8953C385.214 47.5242 384.134 48.6162 382.74 49.2484L383.567 51.0697ZM387.784 46.7472C388.739 44.7376 389.176 42.0377 389.176 38.7273H387.176C387.176 41.9017 386.75 44.2624 385.977 45.8891L387.784 46.7472ZM389.176 38.7273C389.176 35.4153 388.731 32.7129 387.758 30.7012L385.958 31.5715C386.743 33.1962 387.176 35.5544 387.176 38.7273H389.176ZM387.761 30.7073C386.805 28.6947 385.366 27.2293 383.444 26.3806L382.636 28.2103C384.077 28.8464 385.183 29.9417 385.955 31.5654L387.761 30.7073ZM383.447 26.382C381.617 25.567 379.424 25.1818 376.903 25.1818V27.1818C379.231 27.1818 381.129 27.539 382.633 28.2089L383.447 26.382ZM376.903 25.1818H372.449V27.1818H376.903V25.1818ZM371.449 26.1818V51.2727H373.449V26.1818H371.449ZM419.5 15.4545V14.4545H418.5V15.4545H419.5ZM435.227 15.4545L436.152 15.0749L435.898 14.4545H435.227V15.4545ZM446.045 41.8182L445.12 42.1978L445.375 42.8182H446.045V41.8182ZM446.591 41.8182V42.8182H447.261L447.516 42.1978L446.591 41.8182ZM457.409 15.4545V14.4545H456.739L456.484 15.0749L457.409 15.4545ZM473.136 15.4545H474.136V14.4545H473.136V15.4545ZM473.136 62V63H474.136V62H473.136ZM460.773 62H459.773V63H460.773V62ZM460.773 35.0909H461.773V34.0909H460.773V35.0909ZM460.409 35.0909V34.0909H459.726L459.478 34.7272L460.409 35.0909ZM450.045 61.6364V62.6364H450.729L450.977 62L450.045 61.6364ZM442.591 61.6364L441.659 61.9979L441.906 62.6364H442.591V61.6364ZM432.227 34.9091L433.16 34.5476L432.912 33.9091H432.227V34.9091ZM431.864 34.9091V33.9091H430.864V34.9091H431.864ZM431.864 62V63H432.864V62H431.864ZM419.5 62H418.5V63H419.5V62ZM419.5 16.4545H435.227V14.4545H419.5V16.4545ZM434.302 15.8342L445.12 42.1978L446.971 41.4386L436.152 15.0749L434.302 15.8342ZM446.045 42.8182H446.591V40.8182H446.045V42.8182ZM447.516 42.1978L458.334 15.8342L456.484 15.0749L445.666 41.4386L447.516 42.1978ZM457.409 16.4545H473.136V14.4545H457.409V16.4545ZM472.136 15.4545V62H474.136V15.4545H472.136ZM473.136 61H460.773V63H473.136V61ZM461.773 62V35.0909H459.773V62H461.773ZM460.773 34.0909H460.409V36.0909H460.773V34.0909ZM459.478 34.7272L449.114 61.2727L450.977 62L461.341 35.4546L459.478 34.7272ZM450.045 60.6364H442.591V62.6364H450.045V60.6364ZM443.523 61.2748L433.16 34.5476L431.295 35.2706L441.659 61.9979L443.523 61.2748ZM432.227 33.9091H431.864V35.9091H432.227V33.9091ZM430.864 34.9091V62H432.864V34.9091H430.864ZM431.864 61H419.5V63H431.864V61ZM420.5 62V15.4545H418.5V62H420.5ZM506.67 15.4545V14.4545H505.67V15.4545H506.67ZM519.307 15.4545H520.307V14.4545H519.307V15.4545ZM516.761 54.4773L515.925 53.9294L515.924 53.9306L516.761 54.4773ZM509.716 60.4545L510.136 61.3622L510.139 61.3605L509.716 60.4545ZM488.67 60.4545L488.247 61.3605L488.251 61.3622L488.67 60.4545ZM481.625 54.4773L480.784 55.0183L480.788 55.024L481.625 54.4773ZM479.125 15.4545V14.4545H478.125V15.4545H479.125ZM491.761 15.4545H492.761V14.4545H491.761V15.4545ZM492.716 48.0455L491.843 48.5341L491.846 48.5391L492.716 48.0455ZM495.352 50.6818L494.859 51.5515L494.864 51.5543L495.352 50.6818ZM503.08 50.6818L503.573 51.5515L503.573 51.5515L503.08 50.6818ZM505.716 48.0455L506.586 48.5391L506.588 48.5341L505.716 48.0455ZM506.67 16.4545H519.307V14.4545H506.67V16.4545ZM518.307 15.4545V45.2727H520.307V15.4545H518.307ZM518.307 45.2727C518.307 48.6525 517.5 51.5239 515.925 53.9294L517.598 55.0252C519.416 52.2488 520.307 48.9839 520.307 45.2727H518.307ZM515.924 53.9306C514.352 56.3376 512.153 58.2117 509.293 59.5486L510.139 61.3605C513.309 59.8793 515.807 57.7685 517.599 55.024L515.924 53.9306ZM509.296 59.5469C506.436 60.8691 503.084 61.5455 499.216 61.5455V63.5455C503.317 63.5455 506.965 62.8279 510.136 61.3622L509.296 59.5469ZM499.216 61.5455C495.316 61.5455 491.949 60.8686 489.09 59.5469L488.251 61.3622C491.422 62.8283 495.086 63.5455 499.216 63.5455V61.5455ZM489.094 59.5486C486.233 58.2117 484.034 56.3376 482.462 53.9306L480.788 55.024C482.58 57.7685 485.078 59.8793 488.247 61.3605L489.094 59.5486ZM482.466 53.9363C480.918 51.5299 480.125 48.656 480.125 45.2727H478.125C478.125 48.9804 478.999 52.2428 480.784 55.0183L482.466 53.9363ZM480.125 45.2727V15.4545H478.125V45.2727H480.125ZM479.125 16.4545H491.761V14.4545H479.125V16.4545ZM490.761 15.4545V44.1818H492.761V15.4545H490.761ZM490.761 44.1818C490.761 45.7739 491.115 47.2331 491.843 48.5341L493.588 47.5569C493.044 46.585 492.761 45.4685 492.761 44.1818H490.761ZM491.846 48.5391C492.572 49.8173 493.58 50.826 494.859 51.5515L495.846 49.8121C494.882 49.2649 494.133 48.5161 493.586 47.5518L491.846 48.5391ZM494.864 51.5543C496.165 52.2828 497.624 52.6364 499.216 52.6364V50.6364C497.929 50.6364 496.813 50.3535 495.841 49.8093L494.864 51.5543ZM499.216 52.6364C500.821 52.6364 502.283 52.2838 503.573 51.5515L502.586 49.8121C501.634 50.3526 500.52 50.6364 499.216 50.6364V52.6364ZM503.573 51.5515C504.851 50.826 505.86 49.8173 506.586 48.5391L504.846 47.5518C504.299 48.5161 503.55 49.2649 502.586 49.8121L503.573 51.5515ZM506.588 48.5341C507.317 47.2331 507.67 45.7739 507.67 44.1818H505.67C505.67 45.4685 505.388 46.585 504.843 47.5569L506.588 48.5341ZM507.67 44.1818V15.4545H505.67V44.1818H507.67ZM525.312 62H524.312V63H525.312V62ZM525.312 15.4545V14.4545H524.312V15.4545H525.312ZM537.949 15.4545H538.949V14.4545H537.949V15.4545ZM537.949 51.8182H536.949V52.8182H537.949V51.8182ZM556.767 51.8182H557.767V50.8182H556.767V51.8182ZM556.767 62V63H557.767V62H556.767ZM526.312 62V15.4545H524.312V62H526.312ZM525.312 16.4545H537.949V14.4545H525.312V16.4545ZM536.949 15.4545V51.8182H538.949V15.4545H536.949ZM537.949 52.8182H556.767V50.8182H537.949V52.8182ZM555.767 51.8182V62H557.767V51.8182H555.767ZM556.767 61H525.312V63H556.767V61ZM555.04 25.6364H554.04V26.6364H555.04V25.6364ZM555.04 15.4545V14.4545H554.04V15.4545H555.04ZM595.494 15.4545H596.494V14.4545H595.494V15.4545ZM595.494 25.6364V26.6364H596.494V25.6364H595.494ZM581.494 25.6364V24.6364H580.494V25.6364H581.494ZM581.494 62V63H582.494V62H581.494ZM569.04 62H568.04V63H569.04V62ZM569.04 25.6364H570.04V24.6364H569.04V25.6364ZM556.04 25.6364V15.4545H554.04V25.6364H556.04ZM555.04 16.4545H595.494V14.4545H555.04V16.4545ZM594.494 15.4545V25.6364H596.494V15.4545H594.494ZM595.494 24.6364H581.494V26.6364H595.494V24.6364ZM580.494 25.6364V62H582.494V25.6364H580.494ZM581.494 61H569.04V63H581.494V61ZM570.04 62V25.6364H568.04V62H570.04ZM569.04 24.6364H555.04V26.6364H569.04V24.6364ZM612.886 15.4545H613.886V14.4545H612.886V15.4545ZM612.886 62V63H613.886V62H612.886ZM600.25 62H599.25V63H600.25V62ZM600.25 15.4545V14.4545H599.25V15.4545H600.25ZM611.886 15.4545V62H613.886V15.4545H611.886ZM612.886 61H600.25V63H612.886V61ZM601.25 62V15.4545H599.25V62H601.25ZM600.25 16.4545H612.886V14.4545H600.25V16.4545ZM618.875 15.4545V14.4545H617.875V15.4545H618.875ZM634.602 15.4545L635.527 15.0749L635.273 14.4545H634.602V15.4545ZM645.42 41.8182L644.495 42.1978L644.75 42.8182H645.42V41.8182ZM645.966 41.8182V42.8182H646.636L646.891 42.1978L645.966 41.8182ZM656.784 15.4545V14.4545H656.114L655.859 15.0749L656.784 15.4545ZM672.511 15.4545H673.511V14.4545H672.511V15.4545ZM672.511 62V63H673.511V62H672.511ZM660.148 62H659.148V63H660.148V62ZM660.148 35.0909H661.148V34.0909H660.148V35.0909ZM659.784 35.0909V34.0909H659.101L658.853 34.7272L659.784 35.0909ZM649.42 61.6364V62.6364H650.104L650.352 62L649.42 61.6364ZM641.966 61.6364L641.034 61.9979L641.281 62.6364H641.966V61.6364ZM631.602 34.9091L632.535 34.5476L632.287 33.9091H631.602V34.9091ZM631.239 34.9091V33.9091H630.239V34.9091H631.239ZM631.239 62V63H632.239V62H631.239ZM618.875 62H617.875V63H618.875V62ZM618.875 16.4545H634.602V14.4545H618.875V16.4545ZM633.677 15.8342L644.495 42.1978L646.346 41.4386L635.527 15.0749L633.677 15.8342ZM645.42 42.8182H645.966V40.8182H645.42V42.8182ZM646.891 42.1978L657.709 15.8342L655.859 15.0749L645.041 41.4386L646.891 42.1978ZM656.784 16.4545H672.511V14.4545H656.784V16.4545ZM671.511 15.4545V62H673.511V15.4545H671.511ZM672.511 61H660.148V63H672.511V61ZM661.148 62V35.0909H659.148V62H661.148ZM660.148 34.0909H659.784V36.0909H660.148V34.0909ZM658.853 34.7272L648.489 61.2727L650.352 62L660.716 35.4546L658.853 34.7272ZM649.42 60.6364H641.966V62.6364H649.42V60.6364ZM642.898 61.2748L632.535 34.5476L630.67 35.2706L641.034 61.9979L642.898 61.2748ZM631.602 33.9091H631.239V35.9091H631.602V33.9091ZM630.239 34.9091V62H632.239V34.9091H630.239ZM631.239 61H618.875V63H631.239V61ZM619.875 62V15.4545H617.875V62H619.875ZM678.5 62H677.5V63H678.5V62ZM678.5 15.4545V14.4545H677.5V15.4545H678.5ZM712.045 15.4545H713.045V14.4545H712.045V15.4545ZM712.045 25.6364V26.6364H713.045V25.6364H712.045ZM691.136 25.6364V24.6364H690.136V25.6364H691.136ZM691.136 33.6364H690.136V34.6364H691.136V33.6364ZM710.318 33.6364H711.318V32.6364H710.318V33.6364ZM710.318 43.8182V44.8182H711.318V43.8182H710.318ZM691.136 43.8182V42.8182H690.136V43.8182H691.136ZM691.136 51.8182H690.136V52.8182H691.136V51.8182ZM711.955 51.8182H712.955V50.8182H711.955V51.8182ZM711.955 62V63H712.955V62H711.955ZM679.5 62V15.4545H677.5V62H679.5ZM678.5 16.4545H712.045V14.4545H678.5V16.4545ZM711.045 15.4545V25.6364H713.045V15.4545H711.045ZM712.045 24.6364H691.136V26.6364H712.045V24.6364ZM690.136 25.6364V33.6364H692.136V25.6364H690.136ZM691.136 34.6364H710.318V32.6364H691.136V34.6364ZM709.318 33.6364V43.8182H711.318V33.6364H709.318ZM710.318 42.8182H691.136V44.8182H710.318V42.8182ZM690.136 43.8182V51.8182H692.136V43.8182H690.136ZM691.136 52.8182H711.955V50.8182H691.136V52.8182ZM710.955 51.8182V62H712.955V51.8182H710.955ZM711.955 61H678.5V63H711.955V61ZM718.312 62H717.312V63H718.312V62ZM718.312 15.4545V14.4545H717.312V15.4545H718.312ZM748.449 18.25L747.977 19.1318L747.982 19.1343L748.449 18.25ZM756.54 26.25L755.661 26.7275L755.664 26.7321L756.54 26.25ZM756.562 51.2273L757.44 51.7064L757.441 51.7048L756.562 51.2273ZM748.517 59.2273L748.987 60.1098L748.99 60.1082L748.517 59.2273ZM730.949 51.2727H729.949V52.2727H730.949V51.2727ZM741.653 50.1591L741.24 49.2484L741.237 49.2499L741.653 50.1591ZM745.381 46.3182L744.477 45.8891L744.474 45.8953L745.381 46.3182ZM745.358 31.1364L744.455 31.5654L744.458 31.5715L745.358 31.1364ZM741.54 27.2955L741.133 28.2089L741.136 28.2103L741.54 27.2955ZM730.949 26.1818V25.1818H729.949V26.1818H730.949ZM736.222 61H718.312V63H736.222V61ZM719.312 62V15.4545H717.312V62H719.312ZM718.312 16.4545H736.04V14.4545H718.312V16.4545ZM736.04 16.4545C740.698 16.4545 744.665 17.3606 747.977 19.1318L748.92 17.3682C745.263 15.4122 740.958 14.4545 736.04 14.4545V16.4545ZM747.982 19.1343C751.307 20.8905 753.861 23.4155 755.661 26.7275L757.418 25.7725C755.431 22.1148 752.591 19.3065 748.916 17.3657L747.982 19.1343ZM755.664 26.7321C757.475 30.0244 758.403 34.0099 758.403 38.7273H760.403C760.403 33.7477 759.423 29.415 757.416 25.7679L755.664 26.7321ZM758.403 38.7273C758.403 43.4457 757.482 47.4407 755.684 50.7498L757.441 51.7048C759.431 48.0442 760.403 43.7058 760.403 38.7273H758.403ZM755.685 50.7482C753.883 54.0481 751.342 56.5749 748.044 58.3463L748.99 60.1082C752.632 58.1524 755.454 55.3458 757.44 51.7064L755.685 50.7482ZM748.047 58.3447C744.748 60.1019 740.818 61 736.222 61V63C741.08 63 745.346 62.0496 748.987 60.1098L748.047 58.3447ZM730.949 52.2727H735.767V50.2727H730.949V52.2727ZM735.767 52.2727C738.174 52.2727 740.286 51.8853 742.07 51.0683L741.237 49.2499C739.779 49.9177 737.967 50.2727 735.767 50.2727V52.2727ZM742.067 51.0697C743.946 50.2171 745.35 48.7485 746.287 46.7411L744.474 45.8953C743.714 47.5242 742.634 48.6162 741.24 49.2484L742.067 51.0697ZM746.284 46.7472C747.239 44.7376 747.676 42.0377 747.676 38.7273H745.676C745.676 41.9017 745.25 44.2624 744.477 45.8891L746.284 46.7472ZM747.676 38.7273C747.676 35.4153 747.231 32.7129 746.258 30.7012L744.458 31.5715C745.243 33.1962 745.676 35.5544 745.676 38.7273H747.676ZM746.261 30.7073C745.305 28.6947 743.866 27.2293 741.944 26.3806L741.136 28.2103C742.577 28.8464 743.683 29.9417 744.455 31.5654L746.261 30.7073ZM741.947 26.382C740.117 25.567 737.924 25.1818 735.403 25.1818V27.1818C737.731 27.1818 739.629 27.539 741.133 28.2089L741.947 26.382ZM735.403 25.1818H730.949V27.1818H735.403V25.1818ZM729.949 26.1818V51.2727H731.949V26.1818H729.949ZM777.886 15.4545H778.886V14.4545H777.886V15.4545ZM777.886 62V63H778.886V62H777.886ZM765.25 62H764.25V63H765.25V62ZM765.25 15.4545V14.4545H764.25V15.4545H765.25ZM776.886 15.4545V62H778.886V15.4545H776.886ZM777.886 61H765.25V63H777.886V61ZM766.25 62V15.4545H764.25V62H766.25ZM765.25 16.4545H777.886V14.4545H765.25V16.4545ZM795.966 62V63H796.709L796.923 62.289L795.966 62ZM782.33 62L781.38 61.6866L780.946 63H782.33V62ZM797.693 15.4545V14.4545H796.97L796.744 15.1411L797.693 15.4545ZM814.966 15.4545L815.916 15.1411L815.689 14.4545H814.966V15.4545ZM830.33 62V63H831.713L831.279 61.6866L830.33 62ZM816.693 62L815.736 62.289L815.95 63H816.693V62ZM806.511 28.2727L807.469 27.9837L807.254 27.2727H806.511V28.2727ZM806.148 28.2727V27.2727H805.405L805.19 27.9837L806.148 28.2727ZM793.42 43.6364V42.6364H792.42V43.6364H793.42ZM819.057 43.6364H820.057V42.6364H819.057V43.6364ZM819.057 53.0909V54.0909H820.057V53.0909H819.057ZM793.42 53.0909H792.42V54.0909H793.42V53.0909ZM795.966 61H782.33V63H795.966V61ZM783.279 62.3134L798.643 15.768L796.744 15.1411L781.38 61.6866L783.279 62.3134ZM797.693 16.4545H814.966V14.4545H797.693V16.4545ZM814.016 15.768L829.38 62.3134L831.279 61.6866L815.916 15.1411L814.016 15.768ZM830.33 61H816.693V63H830.33V61ZM817.651 61.711L807.469 27.9837L805.554 28.5617L815.736 62.289L817.651 61.711ZM806.511 27.2727H806.148V29.2727H806.511V27.2727ZM805.19 27.9837L795.009 61.711L796.923 62.289L807.105 28.5617L805.19 27.9837ZM793.42 44.6364H819.057V42.6364H793.42V44.6364ZM818.057 43.6364V53.0909H820.057V43.6364H818.057ZM819.057 52.0909H793.42V54.0909H819.057V52.0909ZM794.42 53.0909V43.6364H792.42V53.0909H794.42Z" fill="#FFC1FC"/>
</g>
<g filter="url(#filter1_ddddd_7_14)">
<path d="M192.909 139H175V92.4545H192.727C197.515 92.4545 201.652 93.3864 205.136 95.25C208.636 97.0985 211.333 99.7651 213.227 103.25C215.136 106.72 216.091 110.879 216.091 115.727C216.091 120.576 215.144 124.742 213.25 128.227C211.356 131.697 208.674 134.364 205.205 136.227C201.735 138.076 197.636 139 192.909 139ZM187.636 128.273H192.455C194.758 128.273 196.72 127.902 198.341 127.159C199.977 126.417 201.22 125.136 202.068 123.318C202.932 121.5 203.364 118.97 203.364 115.727C203.364 112.485 202.924 109.955 202.045 108.136C201.182 106.318 199.909 105.038 198.227 104.295C196.561 103.553 194.515 103.182 192.091 103.182H187.636V128.273ZM221.938 139V92.4545H255.483V102.636H234.574V110.636H253.756V120.818H234.574V128.818H255.392V139H221.938ZM261.75 139V92.4545H281.841C285.295 92.4545 288.318 93.1364 290.909 94.5C293.5 95.8636 295.515 97.7803 296.955 100.25C298.394 102.72 299.114 105.606 299.114 108.909C299.114 112.242 298.371 115.129 296.886 117.568C295.417 120.008 293.348 121.886 290.682 123.205C288.03 124.523 284.932 125.182 281.386 125.182H269.386V115.364H278.841C280.326 115.364 281.591 115.106 282.636 114.591C283.697 114.061 284.508 113.311 285.068 112.341C285.644 111.371 285.932 110.227 285.932 108.909C285.932 107.576 285.644 106.439 285.068 105.5C284.508 104.545 283.697 103.818 282.636 103.318C281.591 102.803 280.326 102.545 278.841 102.545H274.386V139H261.75ZM310.028 139H296.392L311.756 92.4545H329.028L344.392 139H330.756L320.574 105.273H320.21L310.028 139ZM307.483 120.636H333.119V130.091H307.483V120.636ZM348.875 139V92.4545H368.966C372.42 92.4545 375.443 93.0833 378.034 94.3409C380.625 95.5985 382.64 97.4091 384.08 99.7727C385.519 102.136 386.239 104.97 386.239 108.273C386.239 111.606 385.496 114.417 384.011 116.705C382.542 118.992 380.473 120.72 377.807 121.886C375.155 123.053 372.057 123.636 368.511 123.636H356.511V113.818H365.966C367.451 113.818 368.716 113.636 369.761 113.273C370.822 112.894 371.633 112.295 372.193 111.477C372.769 110.659 373.057 109.591 373.057 108.273C373.057 106.939 372.769 105.856 372.193 105.023C371.633 104.174 370.822 103.553 369.761 103.159C368.716 102.75 367.451 102.545 365.966 102.545H361.511V139H348.875ZM376.148 117.636L387.784 139H374.057L362.693 117.636H376.148ZM390.352 102.636V92.4545H430.807V102.636H416.807V139H404.352V102.636H390.352ZM435.562 139V92.4545H469.108V102.636H448.199V110.636H467.381V120.818H448.199V128.818H469.017V139H435.562ZM475.375 92.4545H491.102L501.92 118.818H502.466L513.284 92.4545H529.011V139H516.648V112.091H516.284L505.92 138.636H498.466L488.102 111.909H487.739V139H475.375V92.4545ZM535 139V92.4545H568.545V102.636H547.636V110.636H566.818V120.818H547.636V128.818H568.455V139H535ZM615.085 92.4545V139H604.54L587.722 114.545H587.449V139H574.812V92.4545H585.54L602.085 116.818H602.449V92.4545H615.085ZM619.79 102.636V92.4545H660.244V102.636H646.244V139H633.79V102.636H619.79Z" fill="url(#paint1_linear_7_14)"/>
<path d="M175 139H174V140H175V139ZM175 92.4545V91.4545H174V92.4545H175ZM205.136 95.25L204.665 96.1318L204.669 96.1343L205.136 95.25ZM213.227 103.25L212.349 103.728L212.351 103.732L213.227 103.25ZM213.25 128.227L214.128 128.706L214.129 128.705L213.25 128.227ZM205.205 136.227L205.675 137.11L205.678 137.108L205.205 136.227ZM187.636 128.273H186.636V129.273H187.636V128.273ZM198.341 127.159L197.928 126.248L197.925 126.25L198.341 127.159ZM202.068 123.318L201.165 122.889L201.162 122.895L202.068 123.318ZM202.045 108.136L201.142 108.565L201.145 108.572L202.045 108.136ZM198.227 104.295L197.82 105.209L197.823 105.21L198.227 104.295ZM187.636 103.182V102.182H186.636V103.182H187.636ZM192.909 138H175V140H192.909V138ZM176 139V92.4545H174V139H176ZM175 93.4545H192.727V91.4545H175V93.4545ZM192.727 93.4545C197.385 93.4545 201.353 94.3606 204.665 96.1318L205.608 94.3682C201.95 92.4122 197.645 91.4545 192.727 91.4545V93.4545ZM204.669 96.1343C207.995 97.8905 210.549 100.415 212.349 103.728L214.106 102.772C212.118 99.1148 209.278 96.3065 205.603 94.3657L204.669 96.1343ZM212.351 103.732C214.163 107.024 215.091 111.01 215.091 115.727H217.091C217.091 110.748 216.11 106.415 214.103 102.768L212.351 103.732ZM215.091 115.727C215.091 120.446 214.17 124.441 212.371 127.75L214.129 128.705C216.118 125.044 217.091 120.706 217.091 115.727H215.091ZM212.372 127.748C210.571 131.048 208.029 133.575 204.731 135.346L205.678 137.108C209.319 135.152 212.141 132.346 214.128 128.706L212.372 127.748ZM204.734 135.345C201.436 137.102 197.505 138 192.909 138V140C197.767 140 202.034 139.05 205.675 137.11L204.734 135.345ZM187.636 129.273H192.455V127.273H187.636V129.273ZM192.455 129.273C194.861 129.273 196.973 128.885 198.757 128.068L197.925 126.25C196.466 126.918 194.654 127.273 192.455 127.273V129.273ZM198.754 128.07C200.633 127.217 202.038 125.748 202.974 123.741L201.162 122.895C200.402 124.524 199.321 125.616 197.928 126.248L198.754 128.07ZM202.971 123.747C203.926 121.738 204.364 119.038 204.364 115.727H202.364C202.364 118.902 201.938 121.262 201.165 122.889L202.971 123.747ZM204.364 115.727C204.364 112.415 203.918 109.713 202.946 107.701L201.145 108.572C201.93 110.196 202.364 112.554 202.364 115.727H204.364ZM202.949 107.707C201.993 105.695 200.554 104.229 198.631 103.381L197.823 105.21C199.265 105.846 200.371 106.942 201.142 108.565L202.949 107.707ZM198.634 103.382C196.805 102.567 194.612 102.182 192.091 102.182V104.182C194.419 104.182 196.316 104.539 197.82 105.209L198.634 103.382ZM192.091 102.182H187.636V104.182H192.091V102.182ZM186.636 103.182V128.273H188.636V103.182H186.636ZM221.938 139H220.938V140H221.938V139ZM221.938 92.4545V91.4545H220.938V92.4545H221.938ZM255.483 92.4545H256.483V91.4545H255.483V92.4545ZM255.483 102.636V103.636H256.483V102.636H255.483ZM234.574 102.636V101.636H233.574V102.636H234.574ZM234.574 110.636H233.574V111.636H234.574V110.636ZM253.756 110.636H254.756V109.636H253.756V110.636ZM253.756 120.818V121.818H254.756V120.818H253.756ZM234.574 120.818V119.818H233.574V120.818H234.574ZM234.574 128.818H233.574V129.818H234.574V128.818ZM255.392 128.818H256.392V127.818H255.392V128.818ZM255.392 139V140H256.392V139H255.392ZM222.938 139V92.4545H220.938V139H222.938ZM221.938 93.4545H255.483V91.4545H221.938V93.4545ZM254.483 92.4545V102.636H256.483V92.4545H254.483ZM255.483 101.636H234.574V103.636H255.483V101.636ZM233.574 102.636V110.636H235.574V102.636H233.574ZM234.574 111.636H253.756V109.636H234.574V111.636ZM252.756 110.636V120.818H254.756V110.636H252.756ZM253.756 119.818H234.574V121.818H253.756V119.818ZM233.574 120.818V128.818H235.574V120.818H233.574ZM234.574 129.818H255.392V127.818H234.574V129.818ZM254.392 128.818V139H256.392V128.818H254.392ZM255.392 138H221.938V140H255.392V138ZM261.75 139H260.75V140H261.75V139ZM261.75 92.4545V91.4545H260.75V92.4545H261.75ZM290.909 94.5L290.443 95.3849L290.443 95.3849L290.909 94.5ZM296.955 100.25L297.819 99.7465L297.819 99.7465L296.955 100.25ZM296.886 117.568L296.032 117.048L296.03 117.052L296.886 117.568ZM290.682 123.205L290.239 122.308L290.237 122.309L290.682 123.205ZM269.386 125.182H268.386V126.182H269.386V125.182ZM269.386 115.364V114.364H268.386V115.364H269.386ZM282.636 114.591L283.078 115.488L283.084 115.485L282.636 114.591ZM285.068 112.341L284.208 111.83L284.202 111.84L285.068 112.341ZM285.068 105.5L284.206 106.006L284.211 106.015L284.216 106.023L285.068 105.5ZM282.636 103.318L282.194 104.215L282.202 104.219L282.21 104.223L282.636 103.318ZM274.386 102.545V101.545H273.386V102.545H274.386ZM274.386 139V140H275.386V139H274.386ZM262.75 139V92.4545H260.75V139H262.75ZM261.75 93.4545H281.841V91.4545H261.75V93.4545ZM281.841 93.4545C285.162 93.4545 288.02 94.1094 290.443 95.3849L291.375 93.6151C288.617 92.1634 285.429 91.4545 281.841 91.4545V93.4545ZM290.443 95.3849C292.873 96.6635 294.748 98.4499 296.091 100.754L297.819 99.7465C296.282 97.1107 294.127 95.0638 291.375 93.6151L290.443 95.3849ZM296.091 100.754C297.428 103.048 298.114 105.755 298.114 108.909H300.114C300.114 105.457 299.36 102.391 297.819 99.7465L296.091 100.754ZM298.114 108.909C298.114 112.09 297.407 114.79 296.032 117.048L297.741 118.088C299.336 115.467 300.114 112.395 300.114 108.909H298.114ZM296.03 117.052C294.663 119.32 292.742 121.071 290.239 122.308L291.125 124.101C293.955 122.702 296.17 120.695 297.743 118.084L296.03 117.052ZM290.237 122.309C287.748 123.546 284.808 124.182 281.386 124.182V126.182C285.056 126.182 288.312 125.499 291.127 124.1L290.237 122.309ZM281.386 124.182H269.386V126.182H281.386V124.182ZM270.386 125.182V115.364H268.386V125.182H270.386ZM269.386 116.364H278.841V114.364H269.386V116.364ZM278.841 116.364C280.438 116.364 281.863 116.087 283.078 115.488L282.194 113.694C281.319 114.125 280.213 114.364 278.841 114.364V116.364ZM283.084 115.485C284.308 114.873 285.269 113.991 285.934 112.841L284.202 111.84C283.746 112.631 283.086 113.248 282.189 113.696L283.084 115.485ZM285.928 112.851C286.61 111.703 286.932 110.376 286.932 108.909H284.932C284.932 110.078 284.678 111.04 284.208 111.83L285.928 112.851ZM286.932 108.909C286.932 107.43 286.611 106.104 285.921 104.977L284.216 106.023C284.676 106.775 284.932 107.721 284.932 108.909H286.932ZM285.93 104.994C285.262 103.855 284.294 102.994 283.063 102.414L282.21 104.223C283.1 104.642 283.753 105.236 284.206 106.006L285.93 104.994ZM283.078 102.421C281.863 101.822 280.438 101.545 278.841 101.545V103.545C280.213 103.545 281.319 103.784 282.194 104.215L283.078 102.421ZM278.841 101.545H274.386V103.545H278.841V101.545ZM273.386 102.545V139H275.386V102.545H273.386ZM274.386 138H261.75V140H274.386V138ZM310.028 139V140H310.771L310.986 139.289L310.028 139ZM296.392 139L295.442 138.687L295.009 140H296.392V139ZM311.756 92.4545V91.4545H311.033L310.806 92.1411L311.756 92.4545ZM329.028 92.4545L329.978 92.1411L329.751 91.4545H329.028V92.4545ZM344.392 139V140H345.775L345.342 138.687L344.392 139ZM330.756 139L329.798 139.289L330.013 140H330.756V139ZM320.574 105.273L321.531 104.984L321.317 104.273H320.574V105.273ZM320.21 105.273V104.273H319.468L319.253 104.984L320.21 105.273ZM307.483 120.636V119.636H306.483V120.636H307.483ZM333.119 120.636H334.119V119.636H333.119V120.636ZM333.119 130.091V131.091H334.119V130.091H333.119ZM307.483 130.091H306.483V131.091H307.483V130.091ZM310.028 138H296.392V140H310.028V138ZM297.342 139.313L312.705 92.768L310.806 92.1411L295.442 138.687L297.342 139.313ZM311.756 93.4545H329.028V91.4545H311.756V93.4545ZM328.079 92.768L343.442 139.313L345.342 138.687L329.978 92.1411L328.079 92.768ZM344.392 138H330.756V140H344.392V138ZM331.713 138.711L321.531 104.984L319.617 105.562L329.798 139.289L331.713 138.711ZM320.574 104.273H320.21V106.273H320.574V104.273ZM319.253 104.984L309.071 138.711L310.986 139.289L321.168 105.562L319.253 104.984ZM307.483 121.636H333.119V119.636H307.483V121.636ZM332.119 120.636V130.091H334.119V120.636H332.119ZM333.119 129.091H307.483V131.091H333.119V129.091ZM308.483 130.091V120.636H306.483V130.091H308.483ZM348.875 139H347.875V140H348.875V139ZM348.875 92.4545V91.4545H347.875V92.4545H348.875ZM378.034 94.3409L377.597 95.2405L378.034 94.3409ZM384.08 99.7727L384.934 99.2526L384.934 99.2526L384.08 99.7727ZM384.011 116.705L383.173 116.16L383.17 116.164L384.011 116.705ZM377.807 121.886L377.406 120.97L377.404 120.971L377.807 121.886ZM356.511 123.636H355.511V124.636H356.511V123.636ZM356.511 113.818V112.818H355.511V113.818H356.511ZM369.761 113.273L370.09 114.217L370.098 114.214L369.761 113.273ZM372.193 111.477L371.375 110.902L371.368 110.912L372.193 111.477ZM372.193 105.023L371.359 105.574L371.365 105.583L371.37 105.591L372.193 105.023ZM369.761 103.159L369.397 104.09L369.405 104.093L369.413 104.097L369.761 103.159ZM361.511 102.545V101.545H360.511V102.545H361.511ZM361.511 139V140H362.511V139H361.511ZM376.148 117.636L377.026 117.158L376.742 116.636H376.148V117.636ZM387.784 139V140H389.467L388.662 138.522L387.784 139ZM374.057 139L373.174 139.47L373.456 140H374.057V139ZM362.693 117.636V116.636H361.029L361.81 118.106L362.693 117.636ZM349.875 139V92.4545H347.875V139H349.875ZM348.875 93.4545H368.966V91.4545H348.875V93.4545ZM368.966 93.4545C372.299 93.4545 375.167 94.0609 377.597 95.2405L378.471 93.4413C375.719 92.1058 372.542 91.4545 368.966 91.4545V93.4545ZM377.597 95.2405C380.023 96.4179 381.89 98.1 383.225 100.293L384.934 99.2526C383.39 96.7181 381.227 94.7791 378.471 93.4413L377.597 95.2405ZM383.225 100.293C384.552 102.472 385.239 105.117 385.239 108.273H387.239C387.239 104.822 386.485 101.801 384.934 99.2526L383.225 100.293ZM385.239 108.273C385.239 111.456 384.531 114.067 383.173 116.16L384.85 117.249C386.462 114.766 387.239 111.756 387.239 108.273H385.239ZM383.17 116.164C381.815 118.274 379.905 119.877 377.406 120.97L378.208 122.803C381.042 121.563 383.269 119.711 384.853 117.245L383.17 116.164ZM377.404 120.971C374.905 122.071 371.948 122.636 368.511 122.636V124.636C372.165 124.636 375.406 124.035 378.21 122.802L377.404 120.971ZM368.511 122.636H356.511V124.636H368.511V122.636ZM357.511 123.636V113.818H355.511V123.636H357.511ZM356.511 114.818H365.966V112.818H356.511V114.818ZM365.966 114.818C367.527 114.818 368.91 114.628 370.09 114.217L369.433 112.328C368.522 112.645 367.375 112.818 365.966 112.818V114.818ZM370.098 114.214C371.329 113.775 372.323 113.058 373.018 112.043L371.368 110.912C370.943 111.533 370.315 112.013 369.425 112.331L370.098 114.214ZM373.011 112.053C373.738 111.02 374.057 109.732 374.057 108.273H372.057C372.057 109.45 371.8 110.298 371.375 110.902L373.011 112.053ZM374.057 108.273C374.057 106.8 373.739 105.5 373.016 104.454L371.37 105.591C371.799 106.212 372.057 107.079 372.057 108.273H374.057ZM373.028 104.471C372.337 103.426 371.346 102.681 370.11 102.222L369.413 104.097C370.298 104.425 370.928 104.922 371.359 105.574L373.028 104.471ZM370.126 102.228C368.933 101.761 367.537 101.545 365.966 101.545V103.545C367.364 103.545 368.498 103.739 369.397 104.09L370.126 102.228ZM365.966 101.545H361.511V103.545H365.966V101.545ZM360.511 102.545V139H362.511V102.545H360.511ZM361.511 138H348.875V140H361.511V138ZM375.27 118.115L386.906 139.478L388.662 138.522L377.026 117.158L375.27 118.115ZM387.784 138H374.057V140H387.784V138ZM374.94 138.53L363.576 117.167L361.81 118.106L373.174 139.47L374.94 138.53ZM362.693 118.636H376.148V116.636H362.693V118.636ZM390.352 102.636H389.352V103.636H390.352V102.636ZM390.352 92.4545V91.4545H389.352V92.4545H390.352ZM430.807 92.4545H431.807V91.4545H430.807V92.4545ZM430.807 102.636V103.636H431.807V102.636H430.807ZM416.807 102.636V101.636H415.807V102.636H416.807ZM416.807 139V140H417.807V139H416.807ZM404.352 139H403.352V140H404.352V139ZM404.352 102.636H405.352V101.636H404.352V102.636ZM391.352 102.636V92.4545H389.352V102.636H391.352ZM390.352 93.4545H430.807V91.4545H390.352V93.4545ZM429.807 92.4545V102.636H431.807V92.4545H429.807ZM430.807 101.636H416.807V103.636H430.807V101.636ZM415.807 102.636V139H417.807V102.636H415.807ZM416.807 138H404.352V140H416.807V138ZM405.352 139V102.636H403.352V139H405.352ZM404.352 101.636H390.352V103.636H404.352V101.636ZM435.562 139H434.562V140H435.562V139ZM435.562 92.4545V91.4545H434.562V92.4545H435.562ZM469.108 92.4545H470.108V91.4545H469.108V92.4545ZM469.108 102.636V103.636H470.108V102.636H469.108ZM448.199 102.636V101.636H447.199V102.636H448.199ZM448.199 110.636H447.199V111.636H448.199V110.636ZM467.381 110.636H468.381V109.636H467.381V110.636ZM467.381 120.818V121.818H468.381V120.818H467.381ZM448.199 120.818V119.818H447.199V120.818H448.199ZM448.199 128.818H447.199V129.818H448.199V128.818ZM469.017 128.818H470.017V127.818H469.017V128.818ZM469.017 139V140H470.017V139H469.017ZM436.562 139V92.4545H434.562V139H436.562ZM435.562 93.4545H469.108V91.4545H435.562V93.4545ZM468.108 92.4545V102.636H470.108V92.4545H468.108ZM469.108 101.636H448.199V103.636H469.108V101.636ZM447.199 102.636V110.636H449.199V102.636H447.199ZM448.199 111.636H467.381V109.636H448.199V111.636ZM466.381 110.636V120.818H468.381V110.636H466.381ZM467.381 119.818H448.199V121.818H467.381V119.818ZM447.199 120.818V128.818H449.199V120.818H447.199ZM448.199 129.818H469.017V127.818H448.199V129.818ZM468.017 128.818V139H470.017V128.818H468.017ZM469.017 138H435.562V140H469.017V138ZM475.375 92.4545V91.4545H474.375V92.4545H475.375ZM491.102 92.4545L492.027 92.0749L491.773 91.4545H491.102V92.4545ZM501.92 118.818L500.995 119.198L501.25 119.818H501.92V118.818ZM502.466 118.818V119.818H503.136L503.391 119.198L502.466 118.818ZM513.284 92.4545V91.4545H512.614L512.359 92.0749L513.284 92.4545ZM529.011 92.4545H530.011V91.4545H529.011V92.4545ZM529.011 139V140H530.011V139H529.011ZM516.648 139H515.648V140H516.648V139ZM516.648 112.091H517.648V111.091H516.648V112.091ZM516.284 112.091V111.091H515.601L515.353 111.727L516.284 112.091ZM505.92 138.636V139.636H506.604L506.852 139L505.92 138.636ZM498.466 138.636L497.534 138.998L497.781 139.636H498.466V138.636ZM488.102 111.909L489.035 111.548L488.787 110.909H488.102V111.909ZM487.739 111.909V110.909H486.739V111.909H487.739ZM487.739 139V140H488.739V139H487.739ZM475.375 139H474.375V140H475.375V139ZM475.375 93.4545H491.102V91.4545H475.375V93.4545ZM490.177 92.8342L500.995 119.198L502.846 118.439L492.027 92.0749L490.177 92.8342ZM501.92 119.818H502.466V117.818H501.92V119.818ZM503.391 119.198L514.209 92.8342L512.359 92.0749L501.541 118.439L503.391 119.198ZM513.284 93.4545H529.011V91.4545H513.284V93.4545ZM528.011 92.4545V139H530.011V92.4545H528.011ZM529.011 138H516.648V140H529.011V138ZM517.648 139V112.091H515.648V139H517.648ZM516.648 111.091H516.284V113.091H516.648V111.091ZM515.353 111.727L504.989 138.273L506.852 139L517.216 112.455L515.353 111.727ZM505.92 137.636H498.466V139.636H505.92V137.636ZM499.398 138.275L489.035 111.548L487.17 112.271L497.534 138.998L499.398 138.275ZM488.102 110.909H487.739V112.909H488.102V110.909ZM486.739 111.909V139H488.739V111.909H486.739ZM487.739 138H475.375V140H487.739V138ZM476.375 139V92.4545H474.375V139H476.375ZM535 139H534V140H535V139ZM535 92.4545V91.4545H534V92.4545H535ZM568.545 92.4545H569.545V91.4545H568.545V92.4545ZM568.545 102.636V103.636H569.545V102.636H568.545ZM547.636 102.636V101.636H546.636V102.636H547.636ZM547.636 110.636H546.636V111.636H547.636V110.636ZM566.818 110.636H567.818V109.636H566.818V110.636ZM566.818 120.818V121.818H567.818V120.818H566.818ZM547.636 120.818V119.818H546.636V120.818H547.636ZM547.636 128.818H546.636V129.818H547.636V128.818ZM568.455 128.818H569.455V127.818H568.455V128.818ZM568.455 139V140H569.455V139H568.455ZM536 139V92.4545H534V139H536ZM535 93.4545H568.545V91.4545H535V93.4545ZM567.545 92.4545V102.636H569.545V92.4545H567.545ZM568.545 101.636H547.636V103.636H568.545V101.636ZM546.636 102.636V110.636H548.636V102.636H546.636ZM547.636 111.636H566.818V109.636H547.636V111.636ZM565.818 110.636V120.818H567.818V110.636H565.818ZM566.818 119.818H547.636V121.818H566.818V119.818ZM546.636 120.818V128.818H548.636V120.818H546.636ZM547.636 129.818H568.455V127.818H547.636V129.818ZM567.455 128.818V139H569.455V128.818H567.455ZM568.455 138H535V140H568.455V138ZM615.085 92.4545H616.085V91.4545H615.085V92.4545ZM615.085 139V140H616.085V139H615.085ZM604.54 139L603.716 139.567L604.014 140H604.54V139ZM587.722 114.545L588.546 113.979L588.248 113.545H587.722V114.545ZM587.449 114.545V113.545H586.449V114.545H587.449ZM587.449 139V140H588.449V139H587.449ZM574.812 139H573.812V140H574.812V139ZM574.812 92.4545V91.4545H573.812V92.4545H574.812ZM585.54 92.4545L586.367 91.8927L586.069 91.4545H585.54V92.4545ZM602.085 116.818L601.258 117.38L601.556 117.818H602.085V116.818ZM602.449 116.818V117.818H603.449V116.818H602.449ZM602.449 92.4545V91.4545H601.449V92.4545H602.449ZM614.085 92.4545V139H616.085V92.4545H614.085ZM615.085 138H604.54V140H615.085V138ZM605.364 138.433L588.546 113.979L586.898 115.112L603.716 139.567L605.364 138.433ZM587.722 113.545H587.449V115.545H587.722V113.545ZM586.449 114.545V139H588.449V114.545H586.449ZM587.449 138H574.812V140H587.449V138ZM575.812 139V92.4545H573.812V139H575.812ZM574.812 93.4545H585.54V91.4545H574.812V93.4545ZM584.713 93.0163L601.258 117.38L602.912 116.256L586.367 91.8927L584.713 93.0163ZM602.085 117.818H602.449V115.818H602.085V117.818ZM603.449 116.818V92.4545H601.449V116.818H603.449ZM602.449 93.4545H615.085V91.4545H602.449V93.4545ZM619.79 102.636H618.79V103.636H619.79V102.636ZM619.79 92.4545V91.4545H618.79V92.4545H619.79ZM660.244 92.4545H661.244V91.4545H660.244V92.4545ZM660.244 102.636V103.636H661.244V102.636H660.244ZM646.244 102.636V101.636H645.244V102.636H646.244ZM646.244 139V140H647.244V139H646.244ZM633.79 139H632.79V140H633.79V139ZM633.79 102.636H634.79V101.636H633.79V102.636ZM620.79 102.636V92.4545H618.79V102.636H620.79ZM619.79 93.4545H660.244V91.4545H619.79V93.4545ZM659.244 92.4545V102.636H661.244V92.4545H659.244ZM660.244 101.636H646.244V103.636H660.244V101.636ZM645.244 102.636V139H647.244V102.636H645.244ZM646.244 138H633.79V140H646.244V138ZM634.79 139V102.636H632.79V139H634.79ZM633.79 101.636H619.79V103.636H633.79V101.636Z" fill="#FFC1FC"/>
</g>
<defs>
<filter id="filter0_ddddd_7_14" x="0.1875" y="8.81818" width="836.142" height="59.8182" filterUnits="userSpaceOnUse" color-interpolation-filters="sRGB">
<feFlood flood-opacity="0" result="BackgroundImageFix"/>
<feColorMatrix in="SourceAlpha" type="matrix" values="0 0 0 0 0 0 0 0 0 0 0 0 0 0 0 0 0 0 127 0" result="hardAlpha"/>
<feOffset dx="2" dy="6"/>
<feComposite in2="hardAlpha" operator="out"/>
<feColorMatrix type="matrix" values="0 0 0 0 0.894118 0 0 0 0 0.192157 0 0 0 0 0.937255 0 0 0 0.5 0"/>
<feBlend mode="normal" in2="BackgroundImageFix" result="effect1_dropShadow_7_14"/>
<feColorMatrix in="SourceAlpha" type="matrix" values="0 0 0 0 0 0 0 0 0 0 0 0 0 0 0 0 0 0 127 0" result="hardAlpha"/>
<feOffset dx="4" dy="6"/>
<feComposite in2="hardAlpha" operator="out"/>
<feColorMatrix type="matrix" values="0 0 0 0 0.898039 0 0 0 0 0.2 0 0 0 0 0.937255 0 0 0 0.57 0"/>
<feBlend mode="normal" in2="effect1_dropShadow_7_14" result="effect2_dropShadow_7_14"/>
<feColorMatrix in="SourceAlpha" type="matrix" values="0 0 0 0 0 0 0 0 0 0 0 0 0 0 0 0 0 0 127 0" result="hardAlpha"/>
<feOffset dx="3" dy="5"/>
<feComposite in2="hardAlpha" operator="out"/>
<feColorMatrix type="matrix" values="0 0 0 0 0.266667 0 0 0 0 0.0392157 0 0 0 0 0.392157 0 0 0 1 0"/>
<feBlend mode="normal" in2="effect2_dropShadow_7_14" result="effect3_dropShadow_7_14"/>
<feColorMatrix in="SourceAlpha" type="matrix" values="0 0 0 0 0 0 0 0 0 0 0 0 0 0 0 0 0 0 127 0" result="hardAlpha"/>
<feOffset/>
<feGaussianBlur stdDeviation="3"/>
<feComposite in2="hardAlpha" operator="out"/>
<feColorMatrix type="matrix" values="0 0 0 0 0.972321 0 0 0 0 0.502066 0 0 0 0 0.995833 0 0 0 0.99 0"/>
<feBlend mode="normal" in2="effect3_dropShadow_7_14" result="effect4_dropShadow_7_14"/>
<feColorMatrix in="SourceAlpha" type="matrix" values="0 0 0 0 0 0 0 0 0 0 0 0 0 0 0 0 0 0 127 0" result="hardAlpha"/>
<feOffset/>
<feGaussianBlur stdDeviation="1.5"/>
<feComposite in2="hardAlpha" operator="out"/>
<feColorMatrix type="matrix" values="0 0 0 0 0.972321 0 0 0 0 0.502066 0 0 0 0 0.995833 0 0 0 0.99 0"/>
<feBlend mode="normal" in2="effect4_dropShadow_7_14" result="effect5_dropShadow_7_14"/>
<feBlend mode="normal" in="SourceGraphic" in2="effect5_dropShadow_7_14" result="shape"/>
</filter>
<filter id="filter1_ddddd_7_14" x="169" y="86.4545" width="497.244" height="58.5455" filterUnits="userSpaceOnUse" color-interpolation-filters="sRGB">
<feFlood flood-opacity="0" result="BackgroundImageFix"/>
<feColorMatrix in="SourceAlpha" type="matrix" values="0 0 0 0 0 0 0 0 0 0 0 0 0 0 0 0 0 0 127 0" result="hardAlpha"/>
<feOffset dx="2" dy="6"/>
<feComposite in2="hardAlpha" operator="out"/>
<feColorMatrix type="matrix" values="0 0 0 0 0.894118 0 0 0 0 0.192157 0 0 0 0 0.937255 0 0 0 0.5 0"/>
<feBlend mode="normal" in2="BackgroundImageFix" result="effect1_dropShadow_7_14"/>
<feColorMatrix in="SourceAlpha" type="matrix" values="0 0 0 0 0 0 0 0 0 0 0 0 0 0 0 0 0 0 127 0" result="hardAlpha"/>
<feOffset dx="4" dy="6"/>
<feComposite in2="hardAlpha" operator="out"/>
<feColorMatrix type="matrix" values="0 0 0 0 0.898039 0 0 0 0 0.2 0 0 0 0 0.937255 0 0 0 0.57 0"/>
<feBlend mode="normal" in2="effect1_dropShadow_7_14" result="effect2_dropShadow_7_14"/>
<feColorMatrix in="SourceAlpha" type="matrix" values="0 0 0 0 0 0 0 0 0 0 0 0 0 0 0 0 0 0 127 0" result="hardAlpha"/>
<feOffset dx="3" dy="5"/>
<feComposite in2="hardAlpha" operator="out"/>
<feColorMatrix type="matrix" values="0 0 0 0 0.266667 0 0 0 0 0.0392157 0 0 0 0 0.392157 0 0 0 1 0"/>
<feBlend mode="normal" in2="effect2_dropShadow_7_14" result="effect3_dropShadow_7_14"/>
<feColorMatrix in="SourceAlpha" type="matrix" values="0 0 0 0 0 0 0 0 0 0 0 0 0 0 0 0 0 0 127 0" result="hardAlpha"/>
<feOffset/>
<feGaussianBlur stdDeviation="3"/>
<feComposite in2="hardAlpha" operator="out"/>
<feColorMatrix type="matrix" values="0 0 0 0 0.972321 0 0 0 0 0.502066 0 0 0 0 0.995833 0 0 0 0.99 0"/>
<feBlend mode="normal" in2="effect3_dropShadow_7_14" result="effect4_dropShadow_7_14"/>
<feColorMatrix in="SourceAlpha" type="matrix" values="0 0 0 0 0 0 0 0 0 0 0 0 0 0 0 0 0 0 127 0" result="hardAlpha"/>
<feOffset/>
<feGaussianBlur stdDeviation="1.5"/>
<feComposite in2="hardAlpha" operator="out"/>
<feColorMatrix type="matrix" values="0 0 0 0 0.972321 0 0 0 0 0.502066 0 0 0 0 0.995833 0 0 0 0.99 0"/>
<feBlend mode="normal" in2="effect4_dropShadow_7_14" result="effect5_dropShadow_7_14"/>
<feBlend mode="normal" in="SourceGraphic" in2="effect5_dropShadow_7_14" result="shape"/>
</filter>
<linearGradient id="paint0_linear_7_14" x1="418" y1="15" x2="418" y2="62" gradientUnits="userSpaceOnUse">
<stop offset="0.0520833" stop-color="#3525A1"/>
<stop offset="0.291667" stop-color="#BF6DFC"/>
<stop offset="0.515625" stop-color="#FCF7EF"/>
<stop offset="0.536458" stop-color="#DB2F9C"/>
<stop offset="0.703125" stop-color="#450464"/>
<stop offset="0.828125" stop-color="#C53DDD"/>
<stop offset="1" stop-color="#FFE1FE"/>
</linearGradient>
<linearGradient id="paint1_linear_7_14" x1="417.296" y1="92" x2="417.296" y2="139" gradientUnits="userSpaceOnUse">
<stop offset="0.0520833" stop-color="#3525A1"/>
<stop offset="0.291667" stop-color="#BF6DFC"/>
<stop offset="0.515625" stop-color="#FCF7EF"/>
<stop offset="0.536458" stop-color="#DB2F9C"/>
<stop offset="0.703125" stop-color="#450464"/>
<stop offset="0.828125" stop-color="#C53DDD"/>
<stop offset="1" stop-color="#FFE1FE"/>
</linearGradient>
</defs>
</svg>
